<svg id="Component_1_1" data-name="Component 1 – 1" xmlns="http://www.w3.org/2000/svg" width="442" height="442" viewBox="0 0 442 442">
  <g id="Path_3" data-name="Path 3" fill="none">
    <path d="M221,0C343.055,0,442,98.945,442,221S343.055,442,221,442,0,343.055,0,221,98.945,0,221,0Z" stroke="none"/>
    <path d="M 221 45 C 123.9533081054688 45 45 123.9533081054688 45 221 C 45 318.0466918945312 123.9533081054688 397 221 397 C 318.0466918945312 397 397 318.0466918945312 397 221 C 397 123.9533081054688 318.0466918945312 45 221 45 M 221 0 C 343.0549011230469 0 442 98.94509887695312 442 221 C 442 343.0549011230469 343.0549011230469 442 221 442 C 98.94509887695312 442 0 343.0549011230469 0 221 C 0 98.94509887695312 98.94509887695312 0 221 0 Z" stroke="none" fill="#fff"/>
  </g>
  <path id="Path_2" data-name="Path 2" d="M12.162,0H47.838A12.207,12.207,0,0,1,60,12.251V123.33a12.207,12.207,0,0,1-12.162,12.251H12.162A12.207,12.207,0,0,1,0,123.33V12.251A12.207,12.207,0,0,1,12.162,0Z" transform="translate(194 204)" fill="#fff"/>
  <path id="Path_1" data-name="Path 1" d="M32,0A32,32,0,1,1,0,32,32,32,0,0,1,32,0Z" transform="translate(192 106.658)" fill="#fff"/>
</svg>
