<svg xmlns="http://www.w3.org/2000/svg" width="512" height="512" viewBox="0 0 512 512">
  <g id="settings" transform="translate(0 0)">
    <path id="Path_1" data-name="Path 1" d="M272.066,512H239.933A47.188,47.188,0,0,1,192.8,464.867V454a206.7,206.7,0,0,1-32.1-13.323l-7.7,7.7a47.134,47.134,0,0,1-66.665-.007L63.622,425.66A47.131,47.131,0,0,1,63.628,359l7.7-7.7A206.713,206.713,0,0,1,58,319.2H47.133A47.187,47.187,0,0,1,0,272.067V239.933A47.188,47.188,0,0,1,47.134,192.8H58a206.755,206.755,0,0,1,13.323-32.1l-7.7-7.7a47.134,47.134,0,0,1,.006-66.665L86.342,63.623a47.128,47.128,0,0,1,66.664.006l7.7,7.7A206.893,206.893,0,0,1,192.8,58V47.133A47.187,47.187,0,0,1,239.934,0h32.133A47.187,47.187,0,0,1,319.2,47.133V58a206.7,206.7,0,0,1,32.1,13.323l7.7-7.7a47.134,47.134,0,0,1,66.665.007l22.711,22.71a47.131,47.131,0,0,1-.006,66.665l-7.7,7.7A206.715,206.715,0,0,1,454,192.8h10.87A47.188,47.188,0,0,1,512,239.933v32.134A47.188,47.188,0,0,1,464.866,319.2H454a206.755,206.755,0,0,1-13.323,32.1l7.7,7.7a47.134,47.134,0,0,1-.006,66.665l-22.713,22.712a47.128,47.128,0,0,1-66.664-.006l-7.7-7.7A206.894,206.894,0,0,1,319.2,454v10.871A47.186,47.186,0,0,1,272.066,512ZM165.717,409.17a176.812,176.812,0,0,0,45.831,19.025A15,15,0,0,1,222.8,442.719v22.148A17.153,17.153,0,0,0,239.934,482h32.133A17.153,17.153,0,0,0,289.2,464.867V442.719a15,15,0,0,1,11.252-14.524,176.812,176.812,0,0,0,45.831-19.025,15,15,0,0,1,18.243,2.3l15.688,15.689a17.127,17.127,0,0,0,24.224.007l22.727-22.726a17.13,17.13,0,0,0,.006-24.225l-15.7-15.7a15,15,0,0,1-2.3-18.242A176.781,176.781,0,0,0,428.2,300.452,15,15,0,0,1,442.72,289.2h22.147A17.153,17.153,0,0,0,482,272.068V239.934A17.153,17.153,0,0,0,464.867,222.8H442.72A15,15,0,0,1,428.2,211.55a176.816,176.816,0,0,0-19.024-45.831,15,15,0,0,1,2.3-18.242l15.689-15.689a17.128,17.128,0,0,0,.006-24.225L404.447,84.838a17.129,17.129,0,0,0-24.225-.006l-15.694,15.695a15,15,0,0,1-18.243,2.305,176.812,176.812,0,0,0-45.831-19.025A15,15,0,0,1,289.2,69.283V47.133A17.153,17.153,0,0,0,272.068,30H239.935A17.153,17.153,0,0,0,222.8,47.133V69.281A15,15,0,0,1,211.549,83.8a176.812,176.812,0,0,0-45.831,19.025,15,15,0,0,1-18.243-2.305L131.787,84.836a17.127,17.127,0,0,0-24.224-.007L84.836,107.555a17.13,17.13,0,0,0-.006,24.225l15.695,15.7a15,15,0,0,1,2.305,18.242,176.781,176.781,0,0,0-19.024,45.831A15,15,0,0,1,69.282,222.8H47.134A17.155,17.155,0,0,0,30,239.933v32.134A17.153,17.153,0,0,0,47.134,289.2H69.281A15,15,0,0,1,83.8,300.451a176.815,176.815,0,0,0,19.024,45.831,15,15,0,0,1-2.305,18.242L84.835,380.213a17.128,17.128,0,0,0-.006,24.225l22.725,22.725a17.129,17.129,0,0,0,24.225.006l15.694-15.7a15.071,15.071,0,0,1,18.244-2.3Z" fill="#484848"/>
    <path id="Path_2" data-name="Path 2" d="M256,367.4A111.4,111.4,0,1,1,367.4,256,111.526,111.526,0,0,1,256,367.4Zm0-192.8A81.4,81.4,0,1,0,337.4,256,81.492,81.492,0,0,0,256,174.6Z" fill="#484848"/>
  </g>
</svg>
